<?xml version="1.0" encoding="UTF-8"?>
<svg xmlns="http://www.w3.org/2000/svg" width="860" height="680" font-family="Arial, sans-serif" font-size="12">
  <rect width="860" height="680" fill="#fafafa" stroke="#ddd" stroke-width="1"/>
  <text x="430" y="22" text-anchor="middle" font-size="15" font-weight="bold" fill="#222">When 集群组建与协调时序图</text>
  <rect x="30.0" y="50" width="100" height="30" rx="4" fill="#4a90d9" stroke="#2c6fad" stroke-width="1.5"/>
  <text x="80.0" y="70.0" text-anchor="middle" fill="white" font-weight="bold" font-size="13">Node 1</text>
  <rect x="263.3" y="50" width="100" height="30" rx="4" fill="#4a90d9" stroke="#2c6fad" stroke-width="1.5"/>
  <text x="313.3" y="70.0" text-anchor="middle" fill="white" font-weight="bold" font-size="13">Node 2</text>
  <rect x="496.7" y="50" width="100" height="30" rx="4" fill="#4a90d9" stroke="#2c6fad" stroke-width="1.5"/>
  <text x="546.7" y="70.0" text-anchor="middle" fill="white" font-weight="bold" font-size="13">Node 3</text>
  <rect x="730.0" y="50" width="100" height="30" rx="4" fill="#4a90d9" stroke="#2c6fad" stroke-width="1.5"/>
  <text x="780.0" y="70.0" text-anchor="middle" fill="white" font-weight="bold" font-size="13">ETCD</text>
  <line x1="80.0" y1="80" x2="80.0" y2="650" stroke="#aaa" stroke-width="1.5" stroke-dasharray="6,4"/>
  <line x1="313.3" y1="80" x2="313.3" y2="650" stroke="#aaa" stroke-width="1.5" stroke-dasharray="6,4"/>
  <line x1="546.7" y1="80" x2="546.7" y2="650" stroke="#aaa" stroke-width="1.5" stroke-dasharray="6,4"/>
  <line x1="780.0" y1="80" x2="780.0" y2="650" stroke="#aaa" stroke-width="1.5" stroke-dasharray="6,4"/>
  <defs>
    <marker id="arrow" markerWidth="10" markerHeight="7" refX="9" refY="3.5" orient="auto">
      <polygon points="0 0, 10 3.5, 0 7" fill="#333"/>
    </marker>
    <marker id="arrow-resp" markerWidth="10" markerHeight="7" refX="9" refY="3.5" orient="auto">
      <polygon points="0 0, 10 3.5, 0 7" fill="#888"/>
    </marker>
  </defs>
  <line x1="80.0" y1="110.0" x2="780.0" y2="110.0" stroke="#333" stroke-width="1.5" stroke-dasharray="none" marker-end="url(#arrow)"/>
  <text x="430.0" y="105.0" text-anchor="middle" font-size="10" fill="#222">PUT /when/nodes/node-1 (Lease TTL=10s)</text>
  <text x="10" y="114.0" text-anchor="start" font-size="10" fill="#999">1</text>
  <line x1="313.3" y1="150.0" x2="780.0" y2="150.0" stroke="#333" stroke-width="1.5" stroke-dasharray="none" marker-end="url(#arrow)"/>
  <text x="546.7" y="145.0" text-anchor="middle" font-size="10" fill="#222">PUT /when/nodes/node-2 (Lease TTL=10s)</text>
  <text x="10" y="154.0" text-anchor="start" font-size="10" fill="#999">2</text>
  <line x1="546.7" y1="190.0" x2="780.0" y2="190.0" stroke="#333" stroke-width="1.5" stroke-dasharray="none" marker-end="url(#arrow)"/>
  <text x="663.3" y="185.0" text-anchor="middle" font-size="10" fill="#222">PUT /when/nodes/node-3 (Lease TTL=10s)</text>
  <text x="10" y="194.0" text-anchor="start" font-size="10" fill="#999">3</text>
  <line x1="80.0" y1="230.0" x2="780.0" y2="230.0" stroke="#333" stroke-width="1.5" stroke-dasharray="none" marker-end="url(#arrow)"/>
  <text x="430.0" y="225.0" text-anchor="middle" font-size="10" fill="#222">TXN PUT /when/controller</text>
  <text x="10" y="234.0" text-anchor="start" font-size="10" fill="#999">4</text>
  <line x1="780.0" y1="270.0" x2="80.0" y2="270.0" stroke="#888" stroke-width="1.5" stroke-dasharray="6,3" marker-end="url(#arrow-resp)"/>
  <text x="430.0" y="265.0" text-anchor="middle" font-size="10" fill="#555" font-style="italic">OK, become Controller</text>
  <text x="10" y="274.0" text-anchor="start" font-size="10" fill="#999">5</text>
  <line x1="313.3" y1="310.0" x2="780.0" y2="310.0" stroke="#333" stroke-width="1.5" stroke-dasharray="none" marker-end="url(#arrow)"/>
  <text x="546.7" y="305.0" text-anchor="middle" font-size="10" fill="#222">TXN PUT /when/controller</text>
  <text x="10" y="314.0" text-anchor="start" font-size="10" fill="#999">6</text>
  <line x1="780.0" y1="350.0" x2="313.3" y2="350.0" stroke="#888" stroke-width="1.5" stroke-dasharray="6,3" marker-end="url(#arrow-resp)"/>
  <text x="546.7" y="345.0" text-anchor="middle" font-size="10" fill="#555" font-style="italic">FAIL, Watch /when/controller</text>
  <text x="10" y="354.0" text-anchor="start" font-size="10" fill="#999">7</text>
  <line x1="546.7" y1="390.0" x2="780.0" y2="390.0" stroke="#333" stroke-width="1.5" stroke-dasharray="none" marker-end="url(#arrow)"/>
  <text x="663.3" y="385.0" text-anchor="middle" font-size="10" fill="#222">TXN PUT /when/controller</text>
  <text x="10" y="394.0" text-anchor="start" font-size="10" fill="#999">8</text>
  <line x1="780.0" y1="430.0" x2="546.7" y2="430.0" stroke="#888" stroke-width="1.5" stroke-dasharray="6,3" marker-end="url(#arrow-resp)"/>
  <text x="663.3" y="425.0" text-anchor="middle" font-size="10" fill="#555" font-style="italic">FAIL, Watch /when/controller</text>
  <text x="10" y="434.0" text-anchor="start" font-size="10" fill="#999">9</text>
  <line x1="80.0" y1="470.0" x2="780.0" y2="470.0" stroke="#333" stroke-width="1.5" stroke-dasharray="none" marker-end="url(#arrow)"/>
  <text x="430.0" y="465.0" text-anchor="middle" font-size="10" fill="#222">Watch /when/nodes/ (Controller)</text>
  <text x="10" y="474.0" text-anchor="start" font-size="10" fill="#999">10</text>
  <line x1="80.0" y1="510.0" x2="780.0" y2="510.0" stroke="#333" stroke-width="1.5" stroke-dasharray="none" marker-end="url(#arrow)"/>
  <text x="430.0" y="505.0" text-anchor="middle" font-size="10" fill="#222">KeepAlive (every 3s)</text>
  <text x="10" y="514.0" text-anchor="start" font-size="10" fill="#999">11</text>
  <line x1="313.3" y1="550.0" x2="780.0" y2="550.0" stroke="#333" stroke-width="1.5" stroke-dasharray="none" marker-end="url(#arrow)"/>
  <text x="546.7" y="545.0" text-anchor="middle" font-size="10" fill="#222">KeepAlive (every 3s)</text>
  <text x="10" y="554.0" text-anchor="start" font-size="10" fill="#999">12</text>
  <line x1="546.7" y1="590.0" x2="780.0" y2="590.0" stroke="#333" stroke-width="1.5" stroke-dasharray="none" marker-end="url(#arrow)"/>
  <text x="663.3" y="585.0" text-anchor="middle" font-size="10" fill="#222">KeepAlive (every 3s)</text>
  <text x="10" y="594.0" text-anchor="start" font-size="10" fill="#999">13</text>
  <line x1="72.0" y1="650" x2="88.0" y2="650" stroke="#aaa" stroke-width="2"/>
  <line x1="305.3" y1="650" x2="321.3" y2="650" stroke="#aaa" stroke-width="2"/>
  <line x1="538.7" y1="650" x2="554.7" y2="650" stroke="#aaa" stroke-width="2"/>
  <line x1="772.0" y1="650" x2="788.0" y2="650" stroke="#aaa" stroke-width="2"/>
</svg>