<svg xmlns="http://www.w3.org/2000/svg" width="960" height="560" viewBox="0 0 960 560" font-family="'PingFang SC','Microsoft YaHei',Arial,sans-serif">
  <defs>
    <marker id="arr" markerWidth="7" markerHeight="7" refX="6" refY="3.5" orient="auto">
      <path d="M0,0 L7,3.5 L0,7 Z" fill="#999"/>
    </marker>
    <filter id="shadow" x="-5%" y="-5%" width="110%" height="115%">
      <feDropShadow dx="0" dy="2" stdDeviation="3" flood-color="#00000018"/>
    </filter>
  </defs>
  <rect width="960" height="560" fill="#F8FAFF"/>
  <rect x="0" y="0" width="960" height="95" fill="#EEF3FF"/>
  <line x1="0" y1="95" x2="960" y2="95" stroke="#D0DBFF" stroke-width="1"/>
  <text x="480" y="38" text-anchor="middle" font-size="22" font-weight="bold" fill="#1A3A6B">OryxOS 核心功能模块</text>
  <text x="480" y="64" text-anchor="middle" font-size="14" fill="#6B7A99">企业级 AI Agent OS — 运行时 + 治理层</text>
  <circle cx="405" cy="80" r="4" fill="#4A90D9" opacity="0.6"/>
  <circle cx="435" cy="80" r="4" fill="#52B366" opacity="0.6"/>
  <circle cx="465" cy="80" r="4" fill="#D4A843" opacity="0.6"/>
  <circle cx="495" cy="80" r="4" fill="#8B5CF6" opacity="0.6"/>
  <circle cx="525" cy="80" r="4" fill="#E05252" opacity="0.6"/>
  <circle cx="555" cy="80" r="4" fill="#E0734A" opacity="0.6"/>
  <rect x="42" y="110" width="267" height="170" rx="10" fill="#00000012"/>
  <rect x="40" y="108" width="267" height="170" rx="10" fill="white" filter="url(#shadow)"/>
  <rect x="40" y="108" width="5" height="170" rx="5" fill="#4A90D9"/>
  <rect x="40" y="118" width="5" height="150" fill="#4A90D9"/>
  <rect x="45" y="108" width="262" height="38" rx="0" fill="#4A90D9" opacity="0.08"/>
  <rect x="45" y="108" width="252" height="38" rx="0" fill="#4A90D9" opacity="0.00"/>
  <text x="56" y="132" font-size="13" font-weight="bold" fill="#4A90D9">Agent 运行时与多渠道接入</text>
  <text x="291" y="132" text-anchor="end" font-size="13" fill="#4A90D9">★</text>
  <text x="291" y="144" text-anchor="end" font-size="9" fill="#4A90D9" opacity="0.8">核心阶段</text>
  <line x1="54" y1="152" x2="293" y2="152" stroke="#4A90D9" stroke-width="0.8" opacity="0.3"/>
  <circle cx="60" cy="168" r="3.5" fill="#4A90D9" opacity="0.7"/>
  <text x="70" y="172" font-size="11.5" fill="#3A4566">Feishu / WeCom / REST API</text>
  <circle cx="60" cy="194" r="3.5" fill="#4A90D9" opacity="0.7"/>
  <text x="70" y="198" font-size="11.5" fill="#3A4566">14 LLM Provider</text>
  <circle cx="60" cy="220" r="3.5" fill="#4A90D9" opacity="0.7"/>
  <text x="70" y="224" font-size="11.5" fill="#3A4566">Session JSONL 持久化</text>
  <circle cx="259" cy="234" r="36" fill="#4A90D9" opacity="0.06"/>
<circle cx="231" cy="212" r="10" fill="#4A90D9" opacity="0.25" stroke="#4A90D9" stroke-width="1.5"/>
<circle cx="231" cy="234" r="10" fill="#4A90D9" opacity="0.25" stroke="#4A90D9" stroke-width="1.5"/>
<circle cx="231" cy="256" r="10" fill="#4A90D9" opacity="0.25" stroke="#4A90D9" stroke-width="1.5"/>
<line x1="241" y1="212" x2="263" y2="234" stroke="#4A90D9" stroke-width="1" opacity="0.6" marker-end="url(#arr)"/>
<line x1="241" y1="234" x2="263" y2="234" stroke="#4A90D9" stroke-width="1" opacity="0.6" marker-end="url(#arr)"/>
<line x1="241" y1="256" x2="263" y2="234" stroke="#4A90D9" stroke-width="1" opacity="0.6" marker-end="url(#arr)"/>
<rect x="263" y="220" width="28" height="28" rx="4" fill="#4A90D9" opacity="0.18" stroke="#4A90D9" stroke-width="1.5"/>
  <rect x="329" y="110" width="267" height="170" rx="10" fill="#00000012"/>
  <rect x="327" y="108" width="267" height="170" rx="10" fill="white" filter="url(#shadow)"/>
  <rect x="327" y="108" width="5" height="170" rx="5" fill="#52B366"/>
  <rect x="327" y="118" width="5" height="150" fill="#52B366"/>
  <rect x="332" y="108" width="262" height="38" rx="0" fill="#52B366" opacity="0.08"/>
  <rect x="332" y="108" width="252" height="38" rx="0" fill="#52B366" opacity="0.00"/>
  <text x="343" y="132" font-size="13" font-weight="bold" fill="#52B366">技能系统与 Sub Agent 协议</text>
  <text x="578" y="132" text-anchor="end" font-size="13" fill="#52B366">★</text>
  <text x="578" y="144" text-anchor="end" font-size="9" fill="#52B366" opacity="0.8">核心阶段</text>
  <line x1="341" y1="152" x2="580" y2="152" stroke="#52B366" stroke-width="0.8" opacity="0.3"/>
  <circle cx="347" cy="168" r="3.5" fill="#52B366" opacity="0.7"/>
  <text x="357" y="172" font-size="11.5" fill="#3A4566">stdin/stdout JSON Skill</text>
  <circle cx="347" cy="194" r="3.5" fill="#52B366" opacity="0.7"/>
  <text x="357" y="198" font-size="11.5" fill="#3A4566">Agent Card 规范</text>
  <circle cx="347" cy="220" r="3.5" fill="#52B366" opacity="0.7"/>
  <text x="357" y="224" font-size="11.5" fill="#3A4566">Planner 意图路由</text>
  <circle cx="546" cy="234" r="36" fill="#52B366" opacity="0.06"/>
<rect x="514" y="226" width="16" height="16" rx="3" fill="#52B366" opacity="0.2" stroke="#52B366" stroke-width="1.5"/>
<line x1="530" y1="234" x2="538" y2="234" stroke="#52B366" stroke-width="1.5" marker-end="url(#arr)"/>
<rect x="538" y="226" width="16" height="16" rx="3" fill="#52B366" opacity="0.2" stroke="#52B366" stroke-width="1.5"/>
<line x1="554" y1="234" x2="562" y2="234" stroke="#52B366" stroke-width="1.5" marker-end="url(#arr)"/>
<rect x="562" y="226" width="16" height="16" rx="3" fill="#52B366" opacity="0.2" stroke="#52B366" stroke-width="1.5"/>
  <rect x="616" y="110" width="267" height="170" rx="10" fill="#00000012"/>
  <rect x="614" y="108" width="267" height="170" rx="10" fill="white" filter="url(#shadow)"/>
  <rect x="614" y="108" width="5" height="170" rx="5" fill="#D4A843"/>
  <rect x="614" y="118" width="5" height="150" fill="#D4A843"/>
  <rect x="619" y="108" width="262" height="38" rx="0" fill="#D4A843" opacity="0.08"/>
  <rect x="619" y="108" width="252" height="38" rx="0" fill="#D4A843" opacity="0.00"/>
  <text x="630" y="132" font-size="13" font-weight="bold" fill="#D4A843">记忆与上下文管理</text>
  <text x="865" y="132" text-anchor="end" font-size="13" fill="#D4A843">★</text>
  <text x="865" y="144" text-anchor="end" font-size="9" fill="#D4A843" opacity="0.8">核心阶段</text>
  <line x1="628" y1="152" x2="867" y2="152" stroke="#D4A843" stroke-width="0.8" opacity="0.3"/>
  <circle cx="634" cy="168" r="3.5" fill="#D4A843" opacity="0.7"/>
  <text x="644" y="172" font-size="11.5" fill="#3A4566">Episodic BM25 检索</text>
  <circle cx="634" cy="194" r="3.5" fill="#D4A843" opacity="0.7"/>
  <text x="644" y="198" font-size="11.5" fill="#3A4566">Long-term MEMORY.md</text>
  <circle cx="634" cy="220" r="3.5" fill="#D4A843" opacity="0.7"/>
  <text x="644" y="224" font-size="11.5" fill="#3A4566">Entity Bank</text>
  <circle cx="833" cy="234" r="36" fill="#D4A843" opacity="0.06"/>
<rect x="805" y="212" width="56" height="12" rx="3" fill="#D4A843" opacity="0.15" stroke="#D4A843" stroke-width="1.5"/>
<rect x="811" y="228" width="44" height="12" rx="3" fill="#D4A843" opacity="0.27" stroke="#D4A843" stroke-width="1.5"/>
<rect x="817" y="244" width="32" height="12" rx="3" fill="#D4A843" opacity="0.39" stroke="#D4A843" stroke-width="1.5"/>
  <rect x="42" y="300" width="267" height="170" rx="10" fill="#00000012"/>
  <rect x="40" y="298" width="267" height="170" rx="10" fill="white" filter="url(#shadow)"/>
  <rect x="40" y="298" width="5" height="170" rx="5" fill="#8B5CF6"/>
  <rect x="40" y="308" width="5" height="150" fill="#8B5CF6"/>
  <rect x="45" y="298" width="262" height="38" rx="0" fill="#8B5CF6" opacity="0.08"/>
  <rect x="45" y="298" width="252" height="38" rx="0" fill="#8B5CF6" opacity="0.00"/>
  <text x="56" y="322" font-size="13" font-weight="bold" fill="#8B5CF6">多租户隔离与权限管理</text>
  <text x="291" y="322" text-anchor="end" font-size="13" fill="#8B5CF6">★</text>
  <text x="291" y="334" text-anchor="end" font-size="9" fill="#8B5CF6" opacity="0.8">核心阶段</text>
  <line x1="54" y1="342" x2="293" y2="342" stroke="#8B5CF6" stroke-width="0.8" opacity="0.3"/>
  <circle cx="60" cy="358" r="3.5" fill="#8B5CF6" opacity="0.7"/>
  <text x="70" y="362" font-size="11.5" fill="#3A4566">Profile 隔离</text>
  <circle cx="60" cy="384" r="3.5" fill="#8B5CF6" opacity="0.7"/>
  <text x="70" y="388" font-size="11.5" fill="#3A4566">双级角色 RBAC</text>
  <circle cx="60" cy="410" r="3.5" fill="#8B5CF6" opacity="0.7"/>
  <text x="70" y="414" font-size="11.5" fill="#3A4566">Identity Passthrough</text>
  <circle cx="259" cy="424" r="36" fill="#8B5CF6" opacity="0.06"/>
<rect x="217" y="406" width="34" height="36" rx="4" fill="#8B5CF6" opacity="0.15" stroke="#8B5CF6" stroke-width="1.5"/>
<rect x="267" y="406" width="34" height="36" rx="4" fill="#8B5CF6" opacity="0.15" stroke="#8B5CF6" stroke-width="1.5"/>
<line x1="255" y1="402" x2="255" y2="446" stroke="#8B5CF6" stroke-width="2" stroke-dasharray="4,3" opacity="0.7"/>
  <rect x="329" y="300" width="267" height="170" rx="10" fill="#00000012"/>
  <rect x="327" y="298" width="267" height="170" rx="10" fill="white" filter="url(#shadow)"/>
  <rect x="327" y="298" width="5" height="170" rx="5" fill="#E05252"/>
  <rect x="327" y="308" width="5" height="150" fill="#E05252"/>
  <rect x="332" y="298" width="262" height="38" rx="0" fill="#E05252" opacity="0.08"/>
  <rect x="332" y="298" width="252" height="38" rx="0" fill="#E05252" opacity="0.00"/>
  <text x="343" y="322" font-size="13" font-weight="bold" fill="#E05252">治理与审计日志</text>
  <text x="578" y="322" text-anchor="end" font-size="13" fill="#E05252">★</text>
  <text x="578" y="334" text-anchor="end" font-size="9" fill="#E05252" opacity="0.8">核心阶段</text>
  <line x1="341" y1="342" x2="580" y2="342" stroke="#E05252" stroke-width="0.8" opacity="0.3"/>
  <circle cx="347" cy="358" r="3.5" fill="#E05252" opacity="0.7"/>
  <text x="357" y="362" font-size="11.5" fill="#3A4566">4类审计事件</text>
  <circle cx="347" cy="384" r="3.5" fill="#E05252" opacity="0.7"/>
  <text x="357" y="388" font-size="11.5" fill="#3A4566">异步写入</text>
  <circle cx="347" cy="410" r="3.5" fill="#E05252" opacity="0.7"/>
  <text x="357" y="414" font-size="11.5" fill="#3A4566">CSV 导出</text>
  <circle cx="546" cy="424" r="36" fill="#E05252" opacity="0.06"/>
<rect x="520" y="404" width="52" height="8" rx="2" fill="#E05252" opacity="0.12" stroke="#E05252" stroke-width="1"/>
<rect x="520" y="418" width="46" height="8" rx="2" fill="#E05252" opacity="0.19" stroke="#E05252" stroke-width="1"/>
<rect x="520" y="432" width="40" height="8" rx="2" fill="#E05252" opacity="0.26" stroke="#E05252" stroke-width="1"/>
<rect x="520" y="446" width="34" height="8" rx="2" fill="#E05252" opacity="0.33" stroke="#E05252" stroke-width="1"/>
  <rect x="616" y="300" width="267" height="170" rx="10" fill="#00000012"/>
  <rect x="614" y="298" width="267" height="170" rx="10" fill="white" filter="url(#shadow)"/>
  <rect x="614" y="298" width="5" height="170" rx="5" fill="#E0734A"/>
  <rect x="614" y="308" width="5" height="150" fill="#E0734A"/>
  <rect x="619" y="298" width="262" height="38" rx="0" fill="#E0734A" opacity="0.08"/>
  <rect x="619" y="298" width="252" height="38" rx="0" fill="#E0734A" opacity="0.00"/>
  <text x="630" y="322" font-size="13" font-weight="bold" fill="#E0734A">管控平面</text>
  <text x="865" y="322" text-anchor="end" font-size="13" fill="#E0734A">★</text>
  <text x="865" y="334" text-anchor="end" font-size="9" fill="#E0734A" opacity="0.8">核心阶段</text>
  <line x1="628" y1="342" x2="867" y2="342" stroke="#E0734A" stroke-width="0.8" opacity="0.3"/>
  <circle cx="634" cy="358" r="3.5" fill="#E0734A" opacity="0.7"/>
  <text x="644" y="362" font-size="11.5" fill="#3A4566">Profile/Agent/Session 管理</text>
  <circle cx="634" cy="384" r="3.5" fill="#E0734A" opacity="0.7"/>
  <text x="644" y="388" font-size="11.5" fill="#3A4566">Kill Switch</text>
  <circle cx="634" cy="410" r="3.5" fill="#E0734A" opacity="0.7"/>
  <text x="644" y="414" font-size="11.5" fill="#3A4566">热配置</text>
  <circle cx="833" cy="424" r="36" fill="#E0734A" opacity="0.06"/>
<path d="M805,434 A 28 28 0 0 1 861,434" fill="none" stroke="#E0734A" stroke-width="2" opacity="0.4"/>
<line x1="833" y1="434" x2="847" y2="410" stroke="#E0734A" stroke-width="2.5" opacity="0.8"/>
<circle cx="833" cy="434" r="4" fill="#E0734A" opacity="0.7"/>
<line x1="809.0" y1="434.0" x2="814.0" y2="434.0" stroke="#E0734A" stroke-width="1.5" opacity="0.5"/>
<line x1="812.2" y1="422.0" x2="816.5" y2="424.5" stroke="#E0734A" stroke-width="1.5" opacity="0.5"/>
<line x1="821.0" y1="413.2" x2="823.5" y2="417.5" stroke="#E0734A" stroke-width="1.5" opacity="0.5"/>
<line x1="833.0" y1="410.0" x2="833.0" y2="415.0" stroke="#E0734A" stroke-width="1.5" opacity="0.5"/>
<line x1="845.0" y1="413.2" x2="842.5" y2="417.5" stroke="#E0734A" stroke-width="1.5" opacity="0.5"/>
<line x1="853.8" y1="422.0" x2="849.5" y2="424.5" stroke="#E0734A" stroke-width="1.5" opacity="0.5"/>
<line x1="857.0" y1="434.0" x2="852.0" y2="434.0" stroke="#E0734A" stroke-width="1.5" opacity="0.5"/>
  <text x="480" y="550" text-anchor="middle" font-size="10" fill="#A0AABB">OryxOS Core Feature Overview  |  ★ = 核心阶段</text>
</svg>