<svg xmlns="http://www.w3.org/2000/svg" width="960" height="620" viewBox="0 0 960 620">
<defs>
  <marker id="arrowDown" markerWidth="8" markerHeight="8" refX="4" refY="7" orient="auto">
    <path d="M1,1 L7,4 L1,7 Z" fill="#4A90D9"/>
  </marker>
  <marker id="arrowBlue" markerWidth="8" markerHeight="8" refX="7" refY="4" orient="auto">
    <path d="M1,1 L7,4 L1,7 Z" fill="#4A90D9"/>
  </marker>
  <marker id="arrowBlueBack" markerWidth="8" markerHeight="8" refX="1" refY="4" orient="auto-start-reverse">
    <path d="M7,1 L1,4 L7,7 Z" fill="#4A90D9"/>
  </marker>
</defs>
<rect width="960" height="620" fill="#F8FAFF" rx="8"/>
<text x="480" y="36" font-family="Arial,sans-serif" font-size="18" font-weight="bold" fill="#2C5F9E" text-anchor="middle">OryxOS 系统架构</text>
<rect x="30" y="55" width="900" height="120" fill="#E8F4FD" rx="8" stroke="#B0D0EE" stroke-width="1.5"/>
<text x="44" y="71" font-family="Arial,sans-serif" font-size="11" fill="#4A6FA5">消息渠道层</text>
<rect x="107" y="81" width="130" height="44" rx="6" fill="white" stroke="#4A90D9" stroke-width="1.8"/>
<text x="172" y="108" font-family="Arial,sans-serif" font-size="13" font-weight="bold" fill="#2C5F9E" text-anchor="middle">Feishu</text>
<line x1="172" y1="125" x2="172" y2="135" stroke="#4A90D9" stroke-width="1.5" marker-end="url(#arrowDown)"/>
<rect x="261" y="81" width="130" height="44" rx="6" fill="white" stroke="#4A90D9" stroke-width="1.8"/>
<text x="326" y="108" font-family="Arial,sans-serif" font-size="13" font-weight="bold" fill="#2C5F9E" text-anchor="middle">WeCom</text>
<line x1="326" y1="125" x2="326" y2="135" stroke="#4A90D9" stroke-width="1.5" marker-end="url(#arrowDown)"/>
<rect x="415" y="81" width="130" height="44" rx="6" fill="white" stroke="#4A90D9" stroke-width="1.8"/>
<text x="480" y="108" font-family="Arial,sans-serif" font-size="13" font-weight="bold" fill="#2C5F9E" text-anchor="middle">REST API</text>
<line x1="480" y1="125" x2="480" y2="135" stroke="#4A90D9" stroke-width="1.5" marker-end="url(#arrowDown)"/>
<rect x="569" y="81" width="130" height="44" rx="6" fill="white" stroke="#4A90D9" stroke-width="1.8"/>
<text x="634" y="108" font-family="Arial,sans-serif" font-size="13" font-weight="bold" fill="#2C5F9E" text-anchor="middle">Telegram</text>
<line x1="634" y1="125" x2="634" y2="135" stroke="#4A90D9" stroke-width="1.5" marker-end="url(#arrowDown)"/>
<rect x="723" y="81" width="130" height="44" rx="6" fill="white" stroke="#4A90D9" stroke-width="1.8"/>
<text x="788" y="108" font-family="Arial,sans-serif" font-size="13" font-weight="bold" fill="#2C5F9E" text-anchor="middle">Slack</text>
<line x1="788" y1="125" x2="788" y2="135" stroke="#4A90D9" stroke-width="1.5" marker-end="url(#arrowDown)"/>
<rect x="30" y="190" width="900" height="260" fill="#EDF9EE" rx="8" stroke="#7DC47E" stroke-width="1.5"/>
<text x="70" y="212" font-family="Arial,sans-serif" font-size="14" font-weight="bold" fill="#2E7D32">Agent Runtime（Rust）</text>
<text transform="rotate(-90,46,320)" x="46" y="324" font-family="Arial,sans-serif" font-size="10" fill="#2E7D32" text-anchor="middle">热路径 — 处理所有用户请求</text>
<text x="878" y="310" font-family="Arial,sans-serif" font-size="9.5" fill="#666" text-anchor="end">本地存储：</text>
<text x="878" y="324" font-family="Arial,sans-serif" font-size="9.5" fill="#666" text-anchor="end">redb / JSONL</text>
<text x="878" y="338" font-family="Arial,sans-serif" font-size="9.5" fill="#666" text-anchor="end">/ tantivy</text>
<rect x="65" y="230" width="164" height="52" rx="5" fill="#C8EDCA" stroke="#388E3C" stroke-width="1.5"/>
<text x="147" y="261" font-family="Arial,monospace" font-size="12" font-weight="bold" fill="#1B5E20" text-anchor="middle">oryx-gateway</text>
<rect x="239" y="230" width="164" height="52" rx="5" fill="#C8EDCA" stroke="#388E3C" stroke-width="1.5"/>
<text x="321" y="261" font-family="Arial,monospace" font-size="12" font-weight="bold" fill="#1B5E20" text-anchor="middle">oryx-router</text>
<rect x="413" y="230" width="164" height="52" rx="5" fill="#C8EDCA" stroke="#388E3C" stroke-width="1.5"/>
<text x="495" y="261" font-family="Arial,monospace" font-size="12" font-weight="bold" fill="#1B5E20" text-anchor="middle">oryx-session</text>
<rect x="587" y="230" width="164" height="52" rx="5" fill="#C8EDCA" stroke="#388E3C" stroke-width="1.5"/>
<text x="669" y="261" font-family="Arial,monospace" font-size="12" font-weight="bold" fill="#1B5E20" text-anchor="middle">oryx-memory</text>
<rect x="65" y="302" width="164" height="52" rx="5" fill="#C8EDCA" stroke="#388E3C" stroke-width="1.5"/>
<text x="147" y="333" font-family="Arial,monospace" font-size="12" font-weight="bold" fill="#1B5E20" text-anchor="middle">oryx-skill</text>
<rect x="239" y="302" width="164" height="52" rx="5" fill="#C8EDCA" stroke="#388E3C" stroke-width="1.5"/>
<text x="321" y="333" font-family="Arial,monospace" font-size="12" font-weight="bold" fill="#1B5E20" text-anchor="middle">oryx-policy</text>
<rect x="413" y="302" width="164" height="52" rx="5" fill="#C8EDCA" stroke="#388E3C" stroke-width="1.5"/>
<text x="495" y="333" font-family="Arial,monospace" font-size="12" font-weight="bold" fill="#1B5E20" text-anchor="middle">oryx-audit</text>
<rect x="587" y="302" width="164" height="52" rx="5" fill="#C8EDCA" stroke="#388E3C" stroke-width="1.5"/>
<text x="669" y="333" font-family="Arial,monospace" font-size="12" font-weight="bold" fill="#1B5E20" text-anchor="middle">oryx-quota</text>
<line x1="480" y1="452" x2="480" y2="478" stroke="#4A90D9" stroke-width="2" stroke-dasharray="5,4" marker-end="url(#arrowBlue)" marker-start="url(#arrowBlueBack)"/>
<text x="494" y="468" font-family="Arial,sans-serif" font-size="10" fill="#4A90D9">REST API（推送/拉取）</text>
<rect x="30" y="482" width="900" height="118" fill="#FEF9E8" rx="8" stroke="#F0C060" stroke-width="1.5"/>
<text x="44" y="502" font-family="Arial,sans-serif" font-size="13" font-weight="bold" fill="#E65100">Control Plane（Java/Spring Boot）</text>
<rect x="46" y="514" width="145" height="60" rx="5" fill="#FFF3CD" stroke="#F0A030" stroke-width="1.5"/>
<text x="118" y="540" font-family="Arial,sans-serif" font-size="11" font-weight="bold" fill="#BF360C" text-anchor="middle">Profile &amp;</text>
<text x="118" y="556" font-family="Arial,sans-serif" font-size="11" font-weight="bold" fill="#BF360C" text-anchor="middle">配额管理</text>
<rect x="201" y="514" width="145" height="60" rx="5" fill="#FFF3CD" stroke="#F0A030" stroke-width="1.5"/>
<text x="273" y="540" font-family="Arial,sans-serif" font-size="11" font-weight="bold" fill="#BF360C" text-anchor="middle">Sub Agent</text>
<text x="273" y="556" font-family="Arial,sans-serif" font-size="11" font-weight="bold" fill="#BF360C" text-anchor="middle">注册中心</text>
<rect x="356" y="514" width="145" height="60" rx="5" fill="#FFF3CD" stroke="#F0A030" stroke-width="1.5"/>
<text x="428" y="540" font-family="Arial,sans-serif" font-size="11" font-weight="bold" fill="#BF360C" text-anchor="middle">审计日志</text>
<text x="428" y="556" font-family="Arial,sans-serif" font-size="11" font-weight="bold" fill="#BF360C" text-anchor="middle">存储</text>
<rect x="511" y="514" width="145" height="60" rx="5" fill="#FFF3CD" stroke="#F0A030" stroke-width="1.5"/>
<text x="583" y="540" font-family="Arial,sans-serif" font-size="11" font-weight="bold" fill="#BF360C" text-anchor="middle">热配置 &amp;</text>
<text x="583" y="556" font-family="Arial,sans-serif" font-size="11" font-weight="bold" fill="#BF360C" text-anchor="middle">Kill Switch</text>
<rect x="666" y="514" width="145" height="60" rx="5" fill="#FFF3CD" stroke="#F0A030" stroke-width="1.5"/>
<text x="738" y="540" font-family="Arial,sans-serif" font-size="11" font-weight="bold" fill="#BF360C" text-anchor="middle">管控平面</text>
<text x="738" y="556" font-family="Arial,sans-serif" font-size="11" font-weight="bold" fill="#BF360C" text-anchor="middle">React UI</text>
<rect x="867" y="533" width="56" height="44" fill="#FFE0B2" stroke="#FB8C00" stroke-width="1.5"/>
<ellipse cx="895" cy="533" rx="28" ry="9" fill="#FFE0B2" stroke="#FB8C00" stroke-width="1.5"/>
<ellipse cx="895" cy="577" rx="28" ry="9" fill="#FFCC80" stroke="#FB8C00" stroke-width="1.5"/>
<text x="895" y="560" font-family="Arial,sans-serif" font-size="10" fill="#E65100" text-anchor="middle">MySQL</text>
</svg>