<svg xmlns="http://www.w3.org/2000/svg" width="960" height="480" viewBox="0 0 960 480" font-family="'PingFang SC','Microsoft YaHei',Arial,sans-serif">
  <defs>
    <!-- solid blue arrow for gateway→mid (thick) -->
    <marker id="arrBlue" markerWidth="9" markerHeight="9" refX="8" refY="4.5" orient="auto">
      <path d="M0,0 L9,4.5 L0,9 Z" fill="#4A90D9"/>
    </marker>
    <!-- solid blue arrow for gateway→right (thinner) -->
    <marker id="arrBlueS" markerWidth="8" markerHeight="8" refX="7" refY="4" orient="auto">
      <path d="M0,0 L8,4 L0,8 Z" fill="#4A90D9"/>
    </marker>
    <!-- orange dashed arrow: router→quota -->
    <marker id="arrOrange" markerWidth="8" markerHeight="8" refX="7" refY="4" orient="auto">
      <path d="M0,0 L8,4 L0,8 Z" fill="#E09A52"/>
    </marker>
    <!-- purple dashed arrow: skill→policy / skill→audit -->
    <marker id="arrPurple" markerWidth="8" markerHeight="8" refX="7" refY="4" orient="auto">
      <path d="M0,0 L8,4 L0,8 Z" fill="#8B5CF6"/>
    </marker>
    <filter id="shadow" x="-8%" y="-8%" width="116%" height="120%">
      <feDropShadow dx="0" dy="2" stdDeviation="3" flood-color="#00000018"/>
    </filter>
  </defs>
  <rect width="960" height="480" fill="#F8FAFF"/>
  <rect x="30" y="50" width="160" height="420" rx="10" fill="#EEF3FF" opacity="0.5"/>
  <rect x="350" y="50" width="160" height="420" rx="10" fill="#FFF8EE" opacity="0.5"/>
  <rect x="670" y="50" width="160" height="420" rx="10" fill="#EEF8F7" opacity="0.5"/>
  <text x="110" y="64" text-anchor="middle" font-size="11" fill="#7A8AAA" font-style="italic">入口层</text>
  <text x="430" y="64" text-anchor="middle" font-size="11" fill="#7A8AAA" font-style="italic">核心层</text>
  <text x="750" y="64" text-anchor="middle" font-size="11" fill="#7A8AAA" font-style="italic">基础层</text>
  <text x="480" y="30" text-anchor="middle" font-size="16" font-weight="bold" fill="#4A90D9">Agent Runtime — Crate 模块结构</text>
  <rect x="52" y="217" width="120" height="50" rx="6" fill="#00000012"/>
  <rect x="50" y="215" width="120" height="50" rx="6" fill="white" stroke="#4A90D9" stroke-width="2"/>
  <text x="110" y="234" text-anchor="middle" font-size="12" font-weight="bold" fill="#4A90D9">oryx-gateway</text>
  <text x="110" y="247" text-anchor="middle" font-size="9.5" fill="#888">入口 crate / axum HTTP</text>
  <text x="110" y="259" text-anchor="middle" font-size="9.5" fill="#888">Channel Adapter 启动</text>
  <rect x="372" y="122" width="120" height="50" rx="6" fill="#00000012"/>
  <rect x="370" y="120" width="120" height="50" rx="6" fill="white" stroke="#E09A52" stroke-width="2"/>
  <text x="430" y="139" text-anchor="middle" font-size="12" font-weight="bold" fill="#E09A52">oryx-router</text>
  <text x="430" y="152" text-anchor="middle" font-size="9.5" fill="#888">LLM 路由 / 熔断器</text>
  <rect x="372" y="192" width="120" height="50" rx="6" fill="#00000012"/>
  <rect x="370" y="190" width="120" height="50" rx="6" fill="white" stroke="#52B366" stroke-width="2"/>
  <text x="430" y="209" text-anchor="middle" font-size="12" font-weight="bold" fill="#52B366">oryx-session</text>
  <text x="430" y="222" text-anchor="middle" font-size="9.5" fill="#888">JSONL 会话 / Fork / Compact</text>
  <rect x="372" y="262" width="120" height="50" rx="6" fill="#00000012"/>
  <rect x="370" y="260" width="120" height="50" rx="6" fill="white" stroke="#8B5CF6" stroke-width="2"/>
  <text x="430" y="279" text-anchor="middle" font-size="12" font-weight="bold" fill="#8B5CF6">oryx-skill</text>
  <text x="430" y="292" text-anchor="middle" font-size="9.5" fill="#888">Skill 执行 / Sub Agent 客户端</text>
  <rect x="372" y="332" width="120" height="50" rx="6" fill="#00000012"/>
  <rect x="370" y="330" width="120" height="50" rx="6" fill="white" stroke="#3AAFA9" stroke-width="2"/>
  <text x="430" y="349" text-anchor="middle" font-size="12" font-weight="bold" fill="#3AAFA9">oryx-memory</text>
  <text x="430" y="362" text-anchor="middle" font-size="9.5" fill="#888">三层记忆 / redb + tantivy</text>
  <rect x="692" y="149" width="120" height="50" rx="6" fill="#00000012"/>
  <rect x="690" y="147" width="120" height="50" rx="6" fill="white" stroke="#5A7FA8" stroke-width="2"/>
  <text x="750" y="166" text-anchor="middle" font-size="12" font-weight="bold" fill="#5A7FA8">oryx-policy</text>
  <text x="750" y="179" text-anchor="middle" font-size="9.5" fill="#888">Tool Policy / 内存查询 &lt;5ms</text>
  <rect x="692" y="227" width="120" height="50" rx="6" fill="#00000012"/>
  <rect x="690" y="225" width="120" height="50" rx="6" fill="white" stroke="#E05252" stroke-width="2"/>
  <text x="750" y="244" text-anchor="middle" font-size="12" font-weight="bold" fill="#E05252">oryx-audit</text>
  <text x="750" y="257" text-anchor="middle" font-size="9.5" fill="#888">mpsc channel / 批量上报</text>
  <rect x="692" y="305" width="120" height="50" rx="6" fill="#00000012"/>
  <rect x="690" y="303" width="120" height="50" rx="6" fill="white" stroke="#C4A535" stroke-width="2"/>
  <text x="750" y="322" text-anchor="middle" font-size="12" font-weight="bold" fill="#C4A535">oryx-quota</text>
  <text x="750" y="335" text-anchor="middle" font-size="9.5" fill="#888">DashMap / 配额执行</text>
  <polyline points="170,240.0 270,240.0 270,145.0 370,145.0" fill="none" stroke="#4A90D9" stroke-width="2" marker-end="url(#arrBlue)"/>
  <polyline points="170,240.0 270,240.0 270,215.0 370,215.0" fill="none" stroke="#4A90D9" stroke-width="2" marker-end="url(#arrBlue)"/>
  <polyline points="170,240.0 270,240.0 270,285.0 370,285.0" fill="none" stroke="#4A90D9" stroke-width="2" marker-end="url(#arrBlue)"/>
  <polyline points="170,240.0 270,240.0 270,355.0 370,355.0" fill="none" stroke="#4A90D9" stroke-width="2" marker-end="url(#arrBlue)"/>
  <polyline points="170,240.0 240,240.0 240,172.0 690,172.0" fill="none" stroke="#4A90D9" stroke-width="1.2" stroke-dasharray="" marker-end="url(#arrBlueS)"/>
  <polyline points="170,240.0 240,240.0 240,250.0 690,250.0" fill="none" stroke="#4A90D9" stroke-width="1.2" stroke-dasharray="" marker-end="url(#arrBlueS)"/>
  <polyline points="170,240.0 240,240.0 240,328.0 690,328.0" fill="none" stroke="#4A90D9" stroke-width="1.2" stroke-dasharray="" marker-end="url(#arrBlueS)"/>
  <polyline points="490,145.0 520,145.0 520,328.0 690,328.0" fill="none" stroke="#E09A52" stroke-width="1.5" stroke-dasharray="5,3" marker-end="url(#arrOrange)"/>
  <polyline points="490,285.0 515,285.0 515,172.0 690,172.0" fill="none" stroke="#8B5CF6" stroke-width="1.5" stroke-dasharray="5,3" marker-end="url(#arrPurple)"/>
  <polyline points="490,285.0 538,285.0 538,250.0 690,250.0" fill="none" stroke="#8B5CF6" stroke-width="1.5" stroke-dasharray="5,3" marker-end="url(#arrPurple)"/>
  <rect x="760" y="392" width="185" height="78" rx="6" fill="white" stroke="#D0D8EE" stroke-width="1"/>
  <text x="768" y="408" font-size="10" font-weight="bold" fill="#445">图例</text>
  <line x1="768" y1="422" x2="798" y2="422" stroke="#4A90D9" stroke-width="2" marker-end="url(#arrBlue)"/>
  <text x="804" y="426" font-size="9.5" fill="#555">依赖（实线）</text>
  <line x1="768" y1="442" x2="798" y2="442" stroke="#E09A52" stroke-width="1.5" stroke-dasharray="5,3" marker-end="url(#arrOrange)"/>
  <text x="804" y="446" font-size="9.5" fill="#555">调用关系（虚线）</text>
  <line x1="768" y1="460" x2="798" y2="460" stroke="#8B5CF6" stroke-width="1.5" stroke-dasharray="5,3" marker-end="url(#arrPurple)"/>
  <text x="804" y="464" font-size="9.5" fill="#555">策略/审计调用（虚线）</text>
</svg>