<svg xmlns="http://www.w3.org/2000/svg" xmlns="http://www.w3.org/2000/svg" width="900" height="380" viewBox="0 0 900 380">
  <rect x="0" y="0" width="900" height="380" fill="white" />
  <rect x="30" y="10" width="260" height="44" rx="6" ry="6" fill="#1890FF" />
  <text x="160" y="38" text-anchor="middle" font-family="Arial, sans-serif" font-size="15" font-weight="bold" fill="white">集群状态页</text>
  <rect x="40" y="64" width="240" height="52" rx="4" ry="4" fill="#F5F5F5" stroke="#D9D9D9" stroke-width="1" />
  <text x="50" y="84" font-family="Arial, sans-serif" font-size="12" font-weight="bold" fill="#333333">节点列表</text>
  <text x="50" y="102" font-family="Arial, sans-serif" font-size="11" fill="#888888">ID · IP · 状态 · 时间轮数 · 负载</text>
  <rect x="40" y="128" width="240" height="52" rx="4" ry="4" fill="#F5F5F5" stroke="#D9D9D9" stroke-width="1" />
  <text x="50" y="148" font-family="Arial, sans-serif" font-size="12" font-weight="bold" fill="#333333">Controller 高亮</text>
  <text x="50" y="166" font-family="Arial, sans-serif" font-size="11" fill="#888888">当前 Controller 节点标注</text>
  <rect x="40" y="192" width="240" height="52" rx="4" ry="4" fill="#F5F5F5" stroke="#D9D9D9" stroke-width="1" />
  <text x="50" y="212" font-family="Arial, sans-serif" font-size="12" font-weight="bold" fill="#333333">时间轮分配</text>
  <text x="50" y="230" font-family="Arial, sans-serif" font-size="11" fill="#888888">每个 TW 的 Master/Slave 归属</text>
  <rect x="40" y="256" width="240" height="52" rx="4" ry="4" fill="#F5F5F5" stroke="#D9D9D9" stroke-width="1" />
  <text x="50" y="276" font-family="Arial, sans-serif" font-size="12" font-weight="bold" fill="#333333">集群指标卡片</text>
  <text x="50" y="294" font-family="Arial, sans-serif" font-size="11" fill="#888888">消息总量 · 写入QPS · 投递QPS</text>
  <rect x="320" y="10" width="260" height="44" rx="6" ry="6" fill="#1890FF" />
  <text x="450" y="38" text-anchor="middle" font-family="Arial, sans-serif" font-size="15" font-weight="bold" fill="white">任务列表页</text>
  <rect x="330" y="64" width="240" height="52" rx="4" ry="4" fill="#F5F5F5" stroke="#D9D9D9" stroke-width="1" />
  <text x="340" y="84" font-family="Arial, sans-serif" font-size="12" font-weight="bold" fill="#333333">筛选栏</text>
  <text x="340" y="102" font-family="Arial, sans-serif" font-size="11" fill="#888888">状态 · 时间范围 · Sink 类型</text>
  <rect x="330" y="128" width="240" height="52" rx="4" ry="4" fill="#F5F5F5" stroke="#D9D9D9" stroke-width="1" />
  <text x="340" y="148" font-family="Arial, sans-serif" font-size="12" font-weight="bold" fill="#333333">消息列表</text>
  <text x="340" y="166" font-family="Arial, sans-serif" font-size="11" fill="#888888">消息ID · Topic · 到期时间 · 状态</text>
  <rect x="330" y="192" width="240" height="52" rx="4" ry="4" fill="#F5F5F5" stroke="#D9D9D9" stroke-width="1" />
  <text x="340" y="212" font-family="Arial, sans-serif" font-size="12" font-weight="bold" fill="#333333">操作列</text>
  <text x="340" y="230" font-family="Arial, sans-serif" font-size="11" fill="#888888">取消（pending）· 重投（failed）</text>
  <rect x="330" y="256" width="240" height="52" rx="4" ry="4" fill="#F5F5F5" stroke="#D9D9D9" stroke-width="1" />
  <text x="340" y="276" font-family="Arial, sans-serif" font-size="12" font-weight="bold" fill="#333333">消息详情抽屉</text>
  <text x="340" y="294" font-family="Arial, sans-serif" font-size="11" fill="#888888">Payload · 重试记录 · 投递时间线</text>
  <rect x="610" y="10" width="260" height="44" rx="6" ry="6" fill="#1890FF" />
  <text x="740" y="38" text-anchor="middle" font-family="Arial, sans-serif" font-size="15" font-weight="bold" fill="white">投递日志页</text>
  <rect x="620" y="64" width="240" height="52" rx="4" ry="4" fill="#F5F5F5" stroke="#D9D9D9" stroke-width="1" />
  <text x="630" y="84" font-family="Arial, sans-serif" font-size="12" font-weight="bold" fill="#333333">成功率统计卡片</text>
  <text x="630" y="102" font-family="Arial, sans-serif" font-size="11" fill="#888888">近1小时成功率 · P99延迟</text>
  <rect x="620" y="128" width="240" height="52" rx="4" ry="4" fill="#F5F5F5" stroke="#D9D9D9" stroke-width="1" />
  <text x="630" y="148" font-family="Arial, sans-serif" font-size="12" font-weight="bold" fill="#333333">耗时分布图</text>
  <text x="630" y="166" font-family="Arial, sans-serif" font-size="11" fill="#888888">P50 / P75 / P90 / P95 / P99</text>
  <rect x="620" y="192" width="240" height="52" rx="4" ry="4" fill="#F5F5F5" stroke="#D9D9D9" stroke-width="1" />
  <text x="630" y="212" font-family="Arial, sans-serif" font-size="12" font-weight="bold" fill="#333333">日志流水表格</text>
  <text x="630" y="230" font-family="Arial, sans-serif" font-size="11" fill="#888888">时间 · 消息ID · Sink · 结果 · 耗时</text>
  <text x="450" y="356" text-anchor="middle" font-family="Arial, sans-serif" font-size="12" fill="#999999">管理台独立部署，通过 HTTP API 与 When 集群通信</text>
</svg>