<?xml version="1.0" encoding="UTF-8"?>
<svg xmlns="http://www.w3.org/2000/svg" width="1200" height="900" viewBox="0 0 1200 900" style="font-family: Arial, Helvetica, sans-serif;">
  <defs>
    <filter id="shadow" x="-5%" y="-5%" width="110%" height="120%">
      <feDropShadow dx="0" dy="2" stdDeviation="3" flood-color="#00000018" />
    </filter>
  </defs>
  <rect x="0" y="0" width="1200" height="900" fill="#F0F2F5" stroke="none" rx="0" ry="0" stroke-width="1" />
  <rect x="0" y="0" width="200" height="900" fill="#F5F5F5" stroke="#d0d0d0" rx="0" ry="0" stroke-width="1" />
  <rect x="0" y="0" width="200" height="56" fill="#ffffff" stroke="#e0e0e0" rx="0" ry="0" stroke-width="1" />
  <text x="100" y="35" font-size="20" fill="#1890FF" text-anchor="middle" font-weight="bold" font-style="normal">When</text>
  <text x="28" y="83" font-size="14" fill="#555555" text-anchor="start" font-weight="normal" font-style="normal">集群状态</text>
  <line x1="0" y1="100" x2="200" y2="100" stroke="#e8e8e8" stroke-width="1" />
  <text x="28" y="127" font-size="14" fill="#555555" text-anchor="start" font-weight="normal" font-style="normal">任务列表</text>
  <line x1="0" y1="144" x2="200" y2="144" stroke="#e8e8e8" stroke-width="1" />
  <rect x="0" y="144" width="200" height="44" fill="#E8F4FD" stroke="none" rx="0" ry="0" stroke-width="1" />
  <rect x="0" y="144" width="3" height="44" fill="#1890FF" stroke="none" rx="0" ry="0" stroke-width="1" />
  <text x="28" y="171" font-size="14" fill="#1890FF" text-anchor="start" font-weight="bold" font-style="normal">投递日志</text>
  <line x1="0" y1="188" x2="200" y2="188" stroke="#e8e8e8" stroke-width="1" />
  <text x="28" y="215" font-size="14" fill="#888888" text-anchor="start" font-weight="normal" font-style="normal">配置</text>
  <line x1="0" y1="232" x2="200" y2="232" stroke="#e8e8e8" stroke-width="1" />
  <rect x="200" y="0" width="1000" height="40" fill="#ffffff" stroke="#e8e8e8" rx="0" ry="0" stroke-width="1" />
  <text x="220" y="26" font-size="14" fill="#333333" text-anchor="start" font-weight="bold" font-style="normal">投递日志</text>
  <rect x="224" y="64" width="309" height="96" fill="#ffffff" stroke="#e8e8e8" rx="6" ry="6" stroke-width="1" />
  <text x="240" y="86" font-size="13" fill="#888888" text-anchor="start" font-weight="normal" font-style="normal">投递成功率</text>
  <text x="240" y="126" font-size="28" fill="#262626" text-anchor="start" font-weight="bold" font-style="normal">99.87%</text>
  <text x="240" y="146" font-size="11" fill="#aaaaaa" text-anchor="start" font-weight="normal" font-style="normal">近 1 小时</text>
  <rect x="545" y="64" width="309" height="96" fill="#ffffff" stroke="#e8e8e8" rx="6" ry="6" stroke-width="1" />
  <text x="561" y="86" font-size="13" fill="#888888" text-anchor="start" font-weight="normal" font-style="normal">P99 延迟</text>
  <text x="561" y="126" font-size="28" fill="#262626" text-anchor="start" font-weight="bold" font-style="normal">312ms</text>
  <rect x="866" y="64" width="309" height="96" fill="#ffffff" stroke="#e8e8e8" rx="6" ry="6" stroke-width="1" />
  <text x="882" y="86" font-size="13" fill="#888888" text-anchor="start" font-weight="normal" font-style="normal">失败消息</text>
  <text x="882" y="126" font-size="28" fill="#262626" text-anchor="start" font-weight="bold" font-style="normal">16</text>
  <text x="882" y="146" font-size="11" fill="#aaaaaa" text-anchor="start" font-weight="normal" font-style="normal">近 1 小时</text>
  <rect x="224" y="176" width="952" height="160" fill="#ffffff" stroke="#e8e8e8" rx="6" ry="6" stroke-width="1" />
  <text x="240" y="200" font-size="13" fill="#333333" text-anchor="start" font-weight="bold" font-style="normal">投递耗时分布（最近 1 小时）</text>
  <line x1="274" y1="216" x2="274" y2="308" stroke="#cccccc" stroke-width="1" />
  <line x1="274" y1="308" x2="1156" y2="308" stroke="#cccccc" stroke-width="1" />
  <text x="236" y="220" font-size="10" fill="#aaaaaa" text-anchor="start" font-weight="normal" font-style="normal">ms</text>
  <rect x="293.8" y="280.4" width="48.5" height="27.6" fill="#91caff" stroke="#4096ff" stroke-width="0.5" rx="2" />
  <rect x="382.0" y="257.4" width="48.5" height="50.6" fill="#91caff" stroke="#4096ff" stroke-width="0.5" rx="2" />
  <rect x="470.2" y="239.0" width="48.5" height="69.0" fill="#91caff" stroke="#4096ff" stroke-width="0.5" rx="2" />
  <rect x="558.4" y="225.2" width="48.5" height="82.8" fill="#91caff" stroke="#4096ff" stroke-width="0.5" rx="2" />
  <rect x="646.6" y="229.8" width="48.5" height="78.2" fill="#91caff" stroke="#4096ff" stroke-width="0.5" rx="2" />
  <rect x="734.8" y="252.8" width="48.5" height="55.2" fill="#91caff" stroke="#4096ff" stroke-width="0.5" rx="2" />
  <rect x="823.0" y="271.2" width="48.5" height="36.8" fill="#91caff" stroke="#4096ff" stroke-width="0.5" rx="2" />
  <rect x="911.2" y="285.0" width="48.5" height="23.0" fill="#91caff" stroke="#4096ff" stroke-width="0.5" rx="2" />
  <rect x="999.4" y="294.2" width="48.5" height="13.8" fill="#91caff" stroke="#4096ff" stroke-width="0.5" rx="2" />
  <rect x="1087.6" y="298.8" width="48.5" height="9.2" fill="#91caff" stroke="#4096ff" stroke-width="0.5" rx="2" />
  <text x="406.3" y="322" font-size="10" fill="#888888" text-anchor="middle" font-weight="normal" font-style="normal">P50</text>
  <text x="582.7" y="322" font-size="10" fill="#888888" text-anchor="middle" font-weight="normal" font-style="normal">P75</text>
  <text x="759.1" y="322" font-size="10" fill="#888888" text-anchor="middle" font-weight="normal" font-style="normal">P90</text>
  <text x="935.5" y="322" font-size="10" fill="#888888" text-anchor="middle" font-weight="normal" font-style="normal">P95</text>
  <text x="1111.9" y="322" font-size="10" fill="#888888" text-anchor="middle" font-weight="normal" font-style="normal">P99</text>
  <line x1="270" y1="285.0" x2="274" y2="285.0" stroke="#cccccc" stroke-width="1" />
  <text x="266" y="289.0" font-size="9" fill="#aaaaaa" text-anchor="end" font-weight="normal" font-style="normal">100</text>
  <line x1="270" y1="262.0" x2="274" y2="262.0" stroke="#cccccc" stroke-width="1" />
  <text x="266" y="266.0" font-size="9" fill="#aaaaaa" text-anchor="end" font-weight="normal" font-style="normal">200</text>
  <line x1="270" y1="239.0" x2="274" y2="239.0" stroke="#cccccc" stroke-width="1" />
  <text x="266" y="243.0" font-size="9" fill="#aaaaaa" text-anchor="end" font-weight="normal" font-style="normal">300</text>
  <line x1="270" y1="216.0" x2="274" y2="216.0" stroke="#cccccc" stroke-width="1" />
  <text x="266" y="220.0" font-size="9" fill="#aaaaaa" text-anchor="end" font-weight="normal" font-style="normal">400</text>
  <rect x="224" y="352" width="952" height="524" fill="#ffffff" stroke="#e8e8e8" rx="6" ry="6" stroke-width="1" />
  <rect x="224" y="352" width="952" height="48" fill="#fafafa" stroke="#e8e8e8" rx="6" ry="6" stroke-width="1" />
  <rect x="224" y="396" width="952" height="4" fill="#fafafa" stroke="none" rx="0" ry="0" stroke-width="1" />
  <line x1="224" y1="400" x2="1176" y2="400" stroke="#e8e8e8" stroke-width="1" />
  <rect x="240" y="362" width="200" height="28" fill="#ffffff" stroke="#d9d9d9" rx="4" ry="4" stroke-width="1" />
  <text x="250" y="380" font-size="12" fill="#bfbfbf" text-anchor="start" font-weight="normal" font-style="normal">消息 ID</text>
  <rect x="452" y="362" width="130" height="28" fill="#ffffff" stroke="#d9d9d9" rx="4" ry="4" stroke-width="1" />
  <text x="462" y="380" font-size="12" fill="#555555" text-anchor="start" font-weight="normal" font-style="normal">结果状态: 全部</text>
  <text x="568" y="380" font-size="10" fill="#999999" text-anchor="start" font-weight="normal" font-style="normal">▾</text>
  <rect x="594" y="362" width="200" height="28" fill="#ffffff" stroke="#d9d9d9" rx="4" ry="4" stroke-width="1" />
  <text x="604" y="380" font-size="12" fill="#555555" text-anchor="start" font-weight="normal" font-style="normal">时间范围: 最近 1 小时</text>
  <text x="780" y="380" font-size="10" fill="#999999" text-anchor="start" font-weight="normal" font-style="normal">▾</text>
  <rect x="806" y="362" width="72" height="28" fill="#1890FF" stroke="#1890FF" rx="4" ry="4" stroke-width="1" />
  <text x="842" y="380" font-size="12" fill="#ffffff" text-anchor="middle" font-weight="normal" font-style="normal">查 询</text>
  <rect x="224" y="400" width="952" height="36" fill="#f5f5f5" stroke="none" rx="0" ry="0" stroke-width="1" />
  <line x1="224" y1="436" x2="1176" y2="436" stroke="#e8e8e8" stroke-width="1" />
  <text x="236" y="422" font-size="12" fill="#555555" text-anchor="start" font-weight="bold" font-style="normal">时间</text>
  <text x="352" y="422" font-size="12" fill="#555555" text-anchor="start" font-weight="bold" font-style="normal">消息 ID</text>
  <line x1="344" y1="408" x2="344" y2="428" stroke="#e0e0e0" stroke-width="1" />
  <text x="498" y="422" font-size="12" fill="#555555" text-anchor="start" font-weight="bold" font-style="normal">Topic</text>
  <line x1="490" y1="408" x2="490" y2="428" stroke="#e0e0e0" stroke-width="1" />
  <text x="664" y="422" font-size="12" fill="#555555" text-anchor="start" font-weight="bold" font-style="normal">Sink</text>
  <line x1="656" y1="408" x2="656" y2="428" stroke="#e0e0e0" stroke-width="1" />
  <text x="760" y="422" font-size="12" fill="#555555" text-anchor="start" font-weight="bold" font-style="normal">耗时</text>
  <line x1="752" y1="408" x2="752" y2="428" stroke="#e0e0e0" stroke-width="1" />
  <text x="846" y="422" font-size="12" fill="#555555" text-anchor="start" font-weight="bold" font-style="normal">结果</text>
  <line x1="838" y1="408" x2="838" y2="428" stroke="#e0e0e0" stroke-width="1" />
  <text x="932" y="422" font-size="12" fill="#555555" text-anchor="start" font-weight="bold" font-style="normal">错误信息</text>
  <line x1="924" y1="408" x2="924" y2="428" stroke="#e0e0e0" stroke-width="1" />
  <rect x="224" y="436" width="952" height="36" fill="#ffffff" stroke="none" rx="0" ry="0" stroke-width="1" />
  <line x1="224" y1="472" x2="1176" y2="472" stroke="#f0f0f0" stroke-width="1" />
  <text x="236" y="458" font-size="11" fill="#555555" text-anchor="start" font-weight="normal" font-style="normal">10:32:15.123</text>
  <text x="352" y="458" font-size="11" fill="#1890FF" text-anchor="start" font-weight="normal" font-style="normal">msg-abc123</text>
  <text x="498" y="458" font-size="11" fill="#333333" text-anchor="start" font-weight="normal" font-style="normal">order.timeout</text>
  <text x="664" y="458" font-size="11" fill="#333333" text-anchor="start" font-weight="normal" font-style="normal">HTTP</text>
  <text x="760" y="458" font-size="11" fill="#333333" text-anchor="start" font-weight="normal" font-style="normal">45ms</text>
  <rect x="844" y="444" width="52" height="20" fill="#f6ffed" stroke="#b7eb8f" rx="3" ry="3" stroke-width="1" />
  <text x="870" y="458" font-size="11" fill="#52c41a" text-anchor="middle" font-weight="normal" font-style="normal">✓ 成功</text>
  <text x="932" y="458" font-size="11" fill="#aaaaaa" text-anchor="start" font-weight="normal" font-style="normal">-</text>
  <rect x="224" y="472" width="952" height="36" fill="#fafafa" stroke="none" rx="0" ry="0" stroke-width="1" />
  <line x1="224" y1="508" x2="1176" y2="508" stroke="#f0f0f0" stroke-width="1" />
  <text x="236" y="494" font-size="11" fill="#555555" text-anchor="start" font-weight="normal" font-style="normal">10:31:58.442</text>
  <text x="352" y="494" font-size="11" fill="#1890FF" text-anchor="start" font-weight="normal" font-style="normal">msg-def456</text>
  <text x="498" y="494" font-size="11" fill="#333333" text-anchor="start" font-weight="normal" font-style="normal">coupon.expire</text>
  <text x="664" y="494" font-size="11" fill="#333333" text-anchor="start" font-weight="normal" font-style="normal">Kafka</text>
  <text x="760" y="494" font-size="11" fill="#333333" text-anchor="start" font-weight="normal" font-style="normal">12ms</text>
  <rect x="844" y="480" width="52" height="20" fill="#f6ffed" stroke="#b7eb8f" rx="3" ry="3" stroke-width="1" />
  <text x="870" y="494" font-size="11" fill="#52c41a" text-anchor="middle" font-weight="normal" font-style="normal">✓ 成功</text>
  <text x="932" y="494" font-size="11" fill="#aaaaaa" text-anchor="start" font-weight="normal" font-style="normal">-</text>
  <rect x="224" y="508" width="952" height="36" fill="#fffbe6" stroke="none" rx="0" ry="0" stroke-width="1" />
  <line x1="224" y1="544" x2="1176" y2="544" stroke="#f0f0f0" stroke-width="1" />
  <text x="236" y="530" font-size="11" fill="#555555" text-anchor="start" font-weight="normal" font-style="normal">10:31:44.009</text>
  <text x="352" y="530" font-size="11" fill="#1890FF" text-anchor="start" font-weight="normal" font-style="normal">msg-jkl012</text>
  <text x="498" y="530" font-size="11" fill="#333333" text-anchor="start" font-weight="normal" font-style="normal">pay.retry</text>
  <text x="664" y="530" font-size="11" fill="#333333" text-anchor="start" font-weight="normal" font-style="normal">gRPC</text>
  <text x="760" y="530" font-size="11" fill="#333333" text-anchor="start" font-weight="normal" font-style="normal">-</text>
  <rect x="844" y="516" width="52" height="20" fill="#fff2f0" stroke="#ffccc7" rx="3" ry="3" stroke-width="1" />
  <text x="870" y="530" font-size="11" fill="#ff4d4f" text-anchor="middle" font-weight="normal" font-style="normal">✗ 失败</text>
  <text x="932" y="530" font-size="11" fill="#ff4d4f" text-anchor="start" font-weight="normal" font-style="normal">Connection refused</text>
  <rect x="224" y="544" width="952" height="36" fill="#fafafa" stroke="none" rx="0" ry="0" stroke-width="1" />
  <line x1="224" y1="580" x2="1176" y2="580" stroke="#f0f0f0" stroke-width="1" />
  <text x="236" y="566" font-size="11" fill="#555555" text-anchor="start" font-weight="normal" font-style="normal">10:31:30.887</text>
  <text x="352" y="566" font-size="11" fill="#1890FF" text-anchor="start" font-weight="normal" font-style="normal">msg-pqr678</text>
  <text x="498" y="566" font-size="11" fill="#333333" text-anchor="start" font-weight="normal" font-style="normal">audit.log</text>
  <text x="664" y="566" font-size="11" fill="#333333" text-anchor="start" font-weight="normal" font-style="normal">Kafka</text>
  <text x="760" y="566" font-size="11" fill="#333333" text-anchor="start" font-weight="normal" font-style="normal">28ms</text>
  <rect x="844" y="552" width="52" height="20" fill="#f6ffed" stroke="#b7eb8f" rx="3" ry="3" stroke-width="1" />
  <text x="870" y="566" font-size="11" fill="#52c41a" text-anchor="middle" font-weight="normal" font-style="normal">✓ 成功</text>
  <text x="932" y="566" font-size="11" fill="#aaaaaa" text-anchor="start" font-weight="normal" font-style="normal">-</text>
  <rect x="224" y="580" width="952" height="36" fill="#ffffff" stroke="none" rx="0" ry="0" stroke-width="1" />
  <line x1="224" y1="616" x2="1176" y2="616" stroke="#f0f0f0" stroke-width="1" />
  <text x="236" y="602" font-size="11" fill="#555555" text-anchor="start" font-weight="normal" font-style="normal">10:31:12.334</text>
  <text x="352" y="602" font-size="11" fill="#1890FF" text-anchor="start" font-weight="normal" font-style="normal">msg-stu901</text>
  <text x="498" y="602" font-size="11" fill="#333333" text-anchor="start" font-weight="normal" font-style="normal">user.remind</text>
  <text x="664" y="602" font-size="11" fill="#333333" text-anchor="start" font-weight="normal" font-style="normal">HTTP</text>
  <text x="760" y="602" font-size="11" fill="#333333" text-anchor="start" font-weight="normal" font-style="normal">67ms</text>
  <rect x="844" y="588" width="52" height="20" fill="#f6ffed" stroke="#b7eb8f" rx="3" ry="3" stroke-width="1" />
  <text x="870" y="602" font-size="11" fill="#52c41a" text-anchor="middle" font-weight="normal" font-style="normal">✓ 成功</text>
  <text x="932" y="602" font-size="11" fill="#aaaaaa" text-anchor="start" font-weight="normal" font-style="normal">-</text>
  <rect x="224" y="616" width="952" height="36" fill="#fffbe6" stroke="none" rx="0" ry="0" stroke-width="1" />
  <line x1="224" y1="652" x2="1176" y2="652" stroke="#f0f0f0" stroke-width="1" />
  <text x="236" y="638" font-size="11" fill="#555555" text-anchor="start" font-weight="normal" font-style="normal">10:30:59.001</text>
  <text x="352" y="638" font-size="11" fill="#1890FF" text-anchor="start" font-weight="normal" font-style="normal">msg-vwx234</text>
  <text x="498" y="638" font-size="11" fill="#333333" text-anchor="start" font-weight="normal" font-style="normal">order.timeout</text>
  <text x="664" y="638" font-size="11" fill="#333333" text-anchor="start" font-weight="normal" font-style="normal">HTTP</text>
  <text x="760" y="638" font-size="11" fill="#333333" text-anchor="start" font-weight="normal" font-style="normal">-</text>
  <rect x="844" y="624" width="52" height="20" fill="#fff2f0" stroke="#ffccc7" rx="3" ry="3" stroke-width="1" />
  <text x="870" y="638" font-size="11" fill="#ff4d4f" text-anchor="middle" font-weight="normal" font-style="normal">✗ 失败</text>
  <text x="932" y="638" font-size="11" fill="#ff4d4f" text-anchor="start" font-weight="normal" font-style="normal">Timeout 5000ms</text>
  <rect x="0" y="0" width="1200" height="900" fill="none" stroke="#cccccc" rx="0" ry="0" stroke-width="1" />
</svg>