<?xml version="1.0" encoding="UTF-8"?>
<svg xmlns="http://www.w3.org/2000/svg" width="980" height="680" viewBox="0 0 980 680">
  <rect width="980" height="680" fill="#FAFBFF" />
  <text x="490" y="30" font-family="PingFang SC, Noto Sans CJK SC, Microsoft YaHei, sans-serif" font-size="18" font-weight="bold" fill="#1A3A6B" text-anchor="middle">主从复制与故障转移机制</text>
  <text x="490" y="50" font-family="PingFang SC, Noto Sans CJK SC, Microsoft YaHei, sans-serif" font-size="11" font-weight="normal" fill="#888" text-anchor="middle">消息写入主节点 → 同步从节点 → ETCD 监听心跳 → 10s 内完成选主</text>
  <rect x="20" y="65" width="430" height="400" fill="#F0F8FF" rx="8" stroke="#4A90D9" stroke-width="1.5" />
  <rect x="20" y="65" width="430" height="8" fill="#4A90D9" rx="4" />
  <rect x="20" y="69" width="430" height="4" fill="#4A90D9" rx="0" />
  <text x="235" y="90" font-family="PingFang SC, Noto Sans CJK SC, Microsoft YaHei, sans-serif" font-size="13" font-weight="bold" fill="#4A90D9" text-anchor="middle">正常运行：写入与复制</text>
  <rect x="50" y="120" width="160" height="60" fill="#fff" rx="6" stroke="#4A90D9" stroke-width="1.5" />
  <rect x="50" y="120" width="160" height="6" fill="#4A90D9" rx="4" />
  <rect x="50" y="124" width="160" height="4" fill="#4A90D9" rx="0" />
  <text x="130" y="145" font-family="PingFang SC, Noto Sans CJK SC, Microsoft YaHei, sans-serif" font-size="12" font-weight="bold" fill="#4A90D9" text-anchor="middle">Master 节点</text>
  <text x="130" y="164" font-family="PingFang SC, Noto Sans CJK SC, Microsoft YaHei, sans-serif" font-size="8" font-weight="normal" fill="#666" text-anchor="middle">接受写入请求 / 广播复制</text>
  <rect x="50" y="230" width="160" height="60" fill="#fff" rx="6" stroke="#52B366" stroke-width="1.5" />
  <rect x="50" y="230" width="160" height="6" fill="#52B366" rx="4" />
  <rect x="50" y="234" width="160" height="4" fill="#52B366" rx="0" />
  <text x="130" y="255" font-family="PingFang SC, Noto Sans CJK SC, Microsoft YaHei, sans-serif" font-size="12" font-weight="bold" fill="#52B366" text-anchor="middle">Slave 节点 A</text>
  <text x="130" y="274" font-family="PingFang SC, Noto Sans CJK SC, Microsoft YaHei, sans-serif" font-size="8" font-weight="normal" fill="#666" text-anchor="middle">接受复制 / 只读查询</text>
  <rect x="260" y="230" width="160" height="60" fill="#fff" rx="6" stroke="#52B366" stroke-width="1.5" />
  <rect x="260" y="230" width="160" height="6" fill="#52B366" rx="4" />
  <rect x="260" y="234" width="160" height="4" fill="#52B366" rx="0" />
  <text x="340" y="255" font-family="PingFang SC, Noto Sans CJK SC, Microsoft YaHei, sans-serif" font-size="12" font-weight="bold" fill="#52B366" text-anchor="middle">Slave 节点 B</text>
  <text x="340" y="274" font-family="PingFang SC, Noto Sans CJK SC, Microsoft YaHei, sans-serif" font-size="8" font-weight="normal" fill="#666" text-anchor="middle">接受复制 / 只读查询</text>
  <text x="130" y="118" font-family="PingFang SC, Noto Sans CJK SC, Microsoft YaHei, sans-serif" font-size="9" font-weight="normal" fill="#4A90D9" text-anchor="middle">① 客户端写入</text>
  <line x1="130" y1="108" x2="130" y2="120" stroke="#4A90D9" stroke-width="1.5" />
  <polygon points="130,120 127.0,113.0 133.0,113.0" fill="#4A90D9" />
  <line x1="130" y1="180" x2="130" y2="230" stroke="#888" stroke-width="1.5" />
  <polygon points="130,230 127.0,223.0 133.0,223.0" fill="#888" />
  <text x="120" y="208" font-family="PingFang SC, Noto Sans CJK SC, Microsoft YaHei, sans-serif" font-size="9" font-weight="normal" fill="#555" text-anchor="middle">② 复制</text>
  <line x1="210" y1="170" x2="340" y2="230" stroke="#888" stroke-width="1.5" />
  <polygon points="340,230 332.3871097761116,229.79047091126913 334.90145884088207,224.34271460426643" fill="#888" />
  <text x="310" y="208" font-family="PingFang SC, Noto Sans CJK SC, Microsoft YaHei, sans-serif" font-size="9" font-weight="normal" fill="#555" text-anchor="middle">② 复制</text>
  <rect x="140" y="330" width="180" height="40" fill="#F3EEFF" rx="6" stroke="#8B5CF6" stroke-width="1.5" />
  <text x="230" y="346" font-family="PingFang SC, Noto Sans CJK SC, Microsoft YaHei, sans-serif" font-size="10" font-weight="bold" fill="#8B5CF6" text-anchor="middle">ETCD 心跳监控</text>
  <text x="230" y="362" font-family="PingFang SC, Noto Sans CJK SC, Microsoft YaHei, sans-serif" font-size="8" font-weight="normal" fill="#666" text-anchor="middle">TTL=5s，逾期标记宕机</text>
  <line x1="130" y1="180" x2="230" y2="330" stroke="#8B5CF6" stroke-width="1.5" stroke-dasharray="4,3" />
  <line x1="130" y1="290" x2="230" y2="330" stroke="#8B5CF6" stroke-width="1.5" stroke-dasharray="4,3" />
  <line x1="340" y1="290" x2="230" y2="330" stroke="#8B5CF6" stroke-width="1.5" stroke-dasharray="4,3" />
  <rect x="40" y="400" width="390" height="50" fill="#E8F8FF" rx="6" stroke="#4A90D9" stroke-width="1.5" />
  <text x="235" y="418" font-family="PingFang SC, Noto Sans CJK SC, Microsoft YaHei, sans-serif" font-size="10" font-weight="bold" fill="#4A90D9" text-anchor="middle">复制延迟保证</text>
  <text x="235" y="436" font-family="PingFang SC, Noto Sans CJK SC, Microsoft YaHei, sans-serif" font-size="8" font-weight="normal" fill="#555" text-anchor="middle">同步复制 &lt; 50ms  |  磁盘持久化后 ACK  |  Slave 积压监控</text>
  <rect x="470" y="65" width="490" height="550" fill="#FFF5F5" rx="8" stroke="#E05252" stroke-width="1.5" />
  <rect x="470" y="65" width="490" height="8" fill="#E05252" rx="4" />
  <rect x="470" y="69" width="490" height="4" fill="#E05252" rx="0" />
  <text x="715" y="90" font-family="PingFang SC, Noto Sans CJK SC, Microsoft YaHei, sans-serif" font-size="13" font-weight="bold" fill="#E05252" text-anchor="middle">故障转移时序（目标 &lt; 10s）</text>
  <line x1="520" y1="148" x2="520" y2="193" stroke="#CCC" stroke-width="1" />
  <circle cx="520" cy="133" r="10" fill="#E05252" stroke="#fff" stroke-width="2" />
  <text x="520" y="138" font-family="PingFang SC, Noto Sans CJK SC, Microsoft YaHei, sans-serif" font-size="7" font-weight="bold" fill="#fff" text-anchor="middle">T=0s</text>
  <rect x="540" y="118" width="400" height="60" fill="#fff" rx="5" stroke="#E05252" stroke-width="1.5" />
  <rect x="540" y="118" width="400" height="5" fill="#E05252" rx="4" />
  <rect x="540" y="122" width="400" height="4" fill="#E05252" rx="0" />
  <text x="560" y="140" font-family="PingFang SC, Noto Sans CJK SC, Microsoft YaHei, sans-serif" font-size="11" font-weight="bold" fill="#E05252" text-anchor="start">Master 宕机</text>
  <text x="560" y="158" font-family="PingFang SC, Noto Sans CJK SC, Microsoft YaHei, sans-serif" font-size="9" font-weight="normal" fill="#555" text-anchor="start">ETCD TTL 租约到期，心跳停止</text>
  <line x1="520" y1="223" x2="520" y2="268" stroke="#CCC" stroke-width="1" />
  <circle cx="520" cy="208" r="10" fill="#E09A52" stroke="#fff" stroke-width="2" />
  <text x="520" y="213" font-family="PingFang SC, Noto Sans CJK SC, Microsoft YaHei, sans-serif" font-size="7" font-weight="bold" fill="#fff" text-anchor="middle">T=5s</text>
  <rect x="540" y="193" width="400" height="60" fill="#fff" rx="5" stroke="#E09A52" stroke-width="1.5" />
  <rect x="540" y="193" width="400" height="5" fill="#E09A52" rx="4" />
  <rect x="540" y="197" width="400" height="4" fill="#E09A52" rx="0" />
  <text x="560" y="215" font-family="PingFang SC, Noto Sans CJK SC, Microsoft YaHei, sans-serif" font-size="11" font-weight="bold" fill="#E09A52" text-anchor="start">ETCD 感知</text>
  <text x="560" y="233" font-family="PingFang SC, Noto Sans CJK SC, Microsoft YaHei, sans-serif" font-size="9" font-weight="normal" fill="#555" text-anchor="start">TTL 超时，/nodes/master 键消失</text>
  <line x1="520" y1="298" x2="520" y2="343" stroke="#CCC" stroke-width="1" />
  <circle cx="520" cy="283" r="10" fill="#8B5CF6" stroke="#fff" stroke-width="2" />
  <text x="520" y="288" font-family="PingFang SC, Noto Sans CJK SC, Microsoft YaHei, sans-serif" font-size="7" font-weight="bold" fill="#fff" text-anchor="middle">T=5.5s</text>
  <rect x="540" y="268" width="400" height="60" fill="#fff" rx="5" stroke="#8B5CF6" stroke-width="1.5" />
  <rect x="540" y="268" width="400" height="5" fill="#8B5CF6" rx="4" />
  <rect x="540" y="272" width="400" height="4" fill="#8B5CF6" rx="0" />
  <text x="560" y="290" font-family="PingFang SC, Noto Sans CJK SC, Microsoft YaHei, sans-serif" font-size="11" font-weight="bold" fill="#8B5CF6" text-anchor="start">Slave 感知</text>
  <text x="560" y="308" font-family="PingFang SC, Noto Sans CJK SC, Microsoft YaHei, sans-serif" font-size="9" font-weight="normal" fill="#555" text-anchor="start">Watch 事件触发，候选人竞争选主</text>
  <line x1="520" y1="373" x2="520" y2="418" stroke="#CCC" stroke-width="1" />
  <circle cx="520" cy="358" r="10" fill="#8B5CF6" stroke="#fff" stroke-width="2" />
  <text x="520" y="363" font-family="PingFang SC, Noto Sans CJK SC, Microsoft YaHei, sans-serif" font-size="7" font-weight="bold" fill="#fff" text-anchor="middle">T=6s</text>
  <rect x="540" y="343" width="400" height="60" fill="#fff" rx="5" stroke="#8B5CF6" stroke-width="1.5" />
  <rect x="540" y="343" width="400" height="5" fill="#8B5CF6" rx="4" />
  <rect x="540" y="347" width="400" height="4" fill="#8B5CF6" rx="0" />
  <text x="560" y="365" font-family="PingFang SC, Noto Sans CJK SC, Microsoft YaHei, sans-serif" font-size="11" font-weight="bold" fill="#8B5CF6" text-anchor="start">Slave A 当选</text>
  <text x="560" y="383" font-family="PingFang SC, Noto Sans CJK SC, Microsoft YaHei, sans-serif" font-size="9" font-weight="normal" fill="#555" text-anchor="start">抢占 /election/master，成为新 Controller</text>
  <line x1="520" y1="448" x2="520" y2="493" stroke="#CCC" stroke-width="1" />
  <circle cx="520" cy="433" r="10" fill="#52B366" stroke="#fff" stroke-width="2" />
  <text x="520" y="438" font-family="PingFang SC, Noto Sans CJK SC, Microsoft YaHei, sans-serif" font-size="7" font-weight="bold" fill="#fff" text-anchor="middle">T=6.5s</text>
  <rect x="540" y="418" width="400" height="60" fill="#fff" rx="5" stroke="#52B366" stroke-width="1.5" />
  <rect x="540" y="418" width="400" height="5" fill="#52B366" rx="4" />
  <rect x="540" y="422" width="400" height="4" fill="#52B366" rx="0" />
  <text x="560" y="440" font-family="PingFang SC, Noto Sans CJK SC, Microsoft YaHei, sans-serif" font-size="11" font-weight="bold" fill="#52B366" text-anchor="start">角色切换</text>
  <text x="560" y="458" font-family="PingFang SC, Noto Sans CJK SC, Microsoft YaHei, sans-serif" font-size="9" font-weight="normal" fill="#555" text-anchor="start">新 Master 开始接受写入，Slave B 重建复制链</text>
  <circle cx="520" cy="508" r="10" fill="#52B366" stroke="#fff" stroke-width="2" />
  <text x="520" y="513" font-family="PingFang SC, Noto Sans CJK SC, Microsoft YaHei, sans-serif" font-size="7" font-weight="bold" fill="#fff" text-anchor="middle">T=8s</text>
  <rect x="540" y="493" width="400" height="60" fill="#fff" rx="5" stroke="#52B366" stroke-width="1.5" />
  <rect x="540" y="493" width="400" height="5" fill="#52B366" rx="4" />
  <rect x="540" y="497" width="400" height="4" fill="#52B366" rx="0" />
  <text x="560" y="515" font-family="PingFang SC, Noto Sans CJK SC, Microsoft YaHei, sans-serif" font-size="11" font-weight="bold" fill="#52B366" text-anchor="start">服务恢复</text>
  <text x="560" y="533" font-family="PingFang SC, Noto Sans CJK SC, Microsoft YaHei, sans-serif" font-size="9" font-weight="normal" fill="#555" text-anchor="start">对外服务正常，完成故障转移</text>
  <rect x="480" y="570" width="470" height="36" fill="#FFE8E8" rx="6" stroke="#E05252" stroke-width="1.5" />
  <text x="715" y="585" font-family="PingFang SC, Noto Sans CJK SC, Microsoft YaHei, sans-serif" font-size="10" font-weight="bold" fill="#C00" text-anchor="middle">故障转移 SLA</text>
  <text x="715" y="600" font-family="PingFang SC, Noto Sans CJK SC, Microsoft YaHei, sans-serif" font-size="8" font-weight="normal" fill="#555" text-anchor="middle">TTL(5s) + Watch延迟(0.5s) + 选主(0.5s) + 切换(1s) = 约7s &lt; 10s目标</text>
  <rect x="20" y="625" width="940" height="44" fill="#F3EEFF" rx="8" stroke="#8B5CF6" stroke-width="1.5" />
  <text x="490" y="643" font-family="PingFang SC, Noto Sans CJK SC, Microsoft YaHei, sans-serif" font-size="10" font-weight="bold" fill="#5B2DC0" text-anchor="middle">数据一致性保证：写入 Master 后同步复制，ACK 前不响应客户端 → 零丢失保证</text>
  <text x="490" y="660" font-family="PingFang SC, Noto Sans CJK SC, Microsoft YaHei, sans-serif" font-size="9" font-weight="normal" fill="#666" text-anchor="middle">脑裂防护：ETCD 强一致选主，同一时刻只有一个节点持有 /election/master 锁</text>
</svg>