<?xml version="1.0" encoding="UTF-8"?>
<svg xmlns="http://www.w3.org/2000/svg" width="960" height="420" viewBox="0 0 960 420">
  <rect width="960" height="420" fill="#FAFBFF" />
  <text x="480" y="34" font-family="PingFang SC, Noto Sans CJK SC, Microsoft YaHei, sans-serif" font-size="18" font-weight="bold" fill="#1A3A6B" text-anchor="middle">AI 进入了工作流的每一个环节</text>
  <text x="480" y="54" font-family="PingFang SC, Noto Sans CJK SC, Microsoft YaHei, sans-serif" font-size="11" font-weight="normal" fill="#888" text-anchor="middle">写代码只占整条链路 30~40%——AI 改变的是全部，不只是那一段</text>
  <rect x="640" y="310" width="14" height="14" fill="#E05252" stroke="none" rx="3" stroke-width="0" />
  <text x="658" y="322" font-family="PingFang SC, Noto Sans CJK SC, Microsoft YaHei, sans-serif" font-size="9" font-weight="normal" fill="#666" text-anchor="start">AI 主导</text>
  <rect x="716" y="310" width="14" height="14" fill="#4A90D9" stroke="none" rx="3" stroke-width="0" />
  <text x="734" y="322" font-family="PingFang SC, Noto Sans CJK SC, Microsoft YaHei, sans-serif" font-size="9" font-weight="normal" fill="#666" text-anchor="start">AI 协助</text>
  <rect x="792" y="310" width="14" height="14" fill="#888" stroke="none" rx="3" stroke-width="0" />
  <text x="810" y="322" font-family="PingFang SC, Noto Sans CJK SC, Microsoft YaHei, sans-serif" font-size="9" font-weight="normal" fill="#666" text-anchor="start">人决策</text>
  <rect x="20" y="72" width="143" height="230" fill="#fff" stroke="#4A90D9" rx="10" stroke-width="2" />
  <rect x="20" y="72" width="143" height="8" fill="#4A90D9" stroke="none" rx="5" stroke-width="0" />
  <rect x="20" y="76" width="143" height="4" fill="#4A90D9" stroke="none" rx="0" stroke-width="0" />
  <text x="91" y="100" font-family="PingFang SC, Noto Sans CJK SC, Microsoft YaHei, sans-serif" font-size="13" font-weight="bold" fill="#4A90D9" text-anchor="middle">需求</text>
  <rect x="30" y="110" width="123" height="20" fill="#4A90D9" stroke="none" rx="10" stroke-width="0" />
  <text x="91" y="124" font-family="PingFang SC, Noto Sans CJK SC, Microsoft YaHei, sans-serif" font-size="9" font-weight="bold" fill="#fff" text-anchor="middle">AI协助</text>
  <text x="91" y="154" font-family="PingFang SC, Noto Sans CJK SC, Microsoft YaHei, sans-serif" font-size="10" font-weight="normal" fill="#555" text-anchor="middle">需求澄清</text>
  <text x="91" y="180" font-family="PingFang SC, Noto Sans CJK SC, Microsoft YaHei, sans-serif" font-size="10" font-weight="normal" fill="#555" text-anchor="middle">场景扩展</text>
  <text x="91" y="206" font-family="PingFang SC, Noto Sans CJK SC, Microsoft YaHei, sans-serif" font-size="10" font-weight="normal" fill="#555" text-anchor="middle">验收标准</text>
  <line x1="165" y1="187" x2="175" y2="187" stroke="#CCC" stroke-width="2" />
  <polygon points="177,187 169,183 169,191" fill="#CCC" />
  <rect x="175" y="72" width="143" height="230" fill="#fff" stroke="#4A90D9" rx="10" stroke-width="2" />
  <rect x="175" y="72" width="143" height="8" fill="#4A90D9" stroke="none" rx="5" stroke-width="0" />
  <rect x="175" y="76" width="143" height="4" fill="#4A90D9" stroke="none" rx="0" stroke-width="0" />
  <text x="246" y="100" font-family="PingFang SC, Noto Sans CJK SC, Microsoft YaHei, sans-serif" font-size="13" font-weight="bold" fill="#4A90D9" text-anchor="middle">设计</text>
  <rect x="185" y="110" width="123" height="20" fill="#4A90D9" stroke="none" rx="10" stroke-width="0" />
  <text x="246" y="124" font-family="PingFang SC, Noto Sans CJK SC, Microsoft YaHei, sans-serif" font-size="9" font-weight="bold" fill="#fff" text-anchor="middle">AI协助</text>
  <text x="246" y="154" font-family="PingFang SC, Noto Sans CJK SC, Microsoft YaHei, sans-serif" font-size="10" font-weight="normal" fill="#555" text-anchor="middle">架构图</text>
  <text x="246" y="180" font-family="PingFang SC, Noto Sans CJK SC, Microsoft YaHei, sans-serif" font-size="10" font-weight="normal" fill="#555" text-anchor="middle">方案对比</text>
  <text x="246" y="206" font-family="PingFang SC, Noto Sans CJK SC, Microsoft YaHei, sans-serif" font-size="10" font-weight="normal" fill="#555" text-anchor="middle">关键问题</text>
  <line x1="320" y1="187" x2="330" y2="187" stroke="#CCC" stroke-width="2" />
  <polygon points="332,187 324,183 324,191" fill="#CCC" />
  <rect x="330" y="72" width="143" height="230" fill="#fff" stroke="#E05252" rx="10" stroke-width="2" />
  <rect x="330" y="72" width="143" height="8" fill="#E05252" stroke="none" rx="5" stroke-width="0" />
  <rect x="330" y="76" width="143" height="4" fill="#E05252" stroke="none" rx="0" stroke-width="0" />
  <text x="401" y="100" font-family="PingFang SC, Noto Sans CJK SC, Microsoft YaHei, sans-serif" font-size="13" font-weight="bold" fill="#E05252" text-anchor="middle">开发</text>
  <rect x="340" y="110" width="123" height="20" fill="#E05252" stroke="none" rx="10" stroke-width="0" />
  <text x="401" y="124" font-family="PingFang SC, Noto Sans CJK SC, Microsoft YaHei, sans-serif" font-size="9" font-weight="bold" fill="#fff" text-anchor="middle">AI主导</text>
  <text x="401" y="154" font-family="PingFang SC, Noto Sans CJK SC, Microsoft YaHei, sans-serif" font-size="10" font-weight="normal" fill="#555" text-anchor="middle">写代码</text>
  <text x="401" y="180" font-family="PingFang SC, Noto Sans CJK SC, Microsoft YaHei, sans-serif" font-size="10" font-weight="normal" fill="#555" text-anchor="middle">补测试</text>
  <text x="401" y="206" font-family="PingFang SC, Noto Sans CJK SC, Microsoft YaHei, sans-serif" font-size="10" font-weight="normal" fill="#555" text-anchor="middle">代码审查</text>
  <line x1="475" y1="187" x2="485" y2="187" stroke="#CCC" stroke-width="2" />
  <polygon points="487,187 479,183 479,191" fill="#CCC" />
  <rect x="485" y="72" width="143" height="230" fill="#fff" stroke="#E05252" rx="10" stroke-width="2" />
  <rect x="485" y="72" width="143" height="8" fill="#E05252" stroke="none" rx="5" stroke-width="0" />
  <rect x="485" y="76" width="143" height="4" fill="#E05252" stroke="none" rx="0" stroke-width="0" />
  <text x="556" y="100" font-family="PingFang SC, Noto Sans CJK SC, Microsoft YaHei, sans-serif" font-size="13" font-weight="bold" fill="#E05252" text-anchor="middle">测试</text>
  <rect x="495" y="110" width="123" height="20" fill="#E05252" stroke="none" rx="10" stroke-width="0" />
  <text x="556" y="124" font-family="PingFang SC, Noto Sans CJK SC, Microsoft YaHei, sans-serif" font-size="9" font-weight="bold" fill="#fff" text-anchor="middle">AI主导</text>
  <text x="556" y="154" font-family="PingFang SC, Noto Sans CJK SC, Microsoft YaHei, sans-serif" font-size="10" font-weight="normal" fill="#555" text-anchor="middle">用例生成</text>
  <text x="556" y="180" font-family="PingFang SC, Noto Sans CJK SC, Microsoft YaHei, sans-serif" font-size="10" font-weight="normal" fill="#555" text-anchor="middle">回归跑批</text>
  <text x="556" y="206" font-family="PingFang SC, Noto Sans CJK SC, Microsoft YaHei, sans-serif" font-size="10" font-weight="normal" fill="#555" text-anchor="middle">失败分析</text>
  <line x1="630" y1="187" x2="640" y2="187" stroke="#CCC" stroke-width="2" />
  <polygon points="642,187 634,183 634,191" fill="#CCC" />
  <rect x="640" y="72" width="143" height="230" fill="#fff" stroke="#8B5CF6" rx="10" stroke-width="2" />
  <rect x="640" y="72" width="143" height="8" fill="#8B5CF6" stroke="none" rx="5" stroke-width="0" />
  <rect x="640" y="76" width="143" height="4" fill="#8B5CF6" stroke="none" rx="0" stroke-width="0" />
  <text x="711" y="100" font-family="PingFang SC, Noto Sans CJK SC, Microsoft YaHei, sans-serif" font-size="13" font-weight="bold" fill="#8B5CF6" text-anchor="middle">部署</text>
  <rect x="650" y="110" width="123" height="20" fill="#8B5CF6" stroke="none" rx="10" stroke-width="0" />
  <text x="711" y="124" font-family="PingFang SC, Noto Sans CJK SC, Microsoft YaHei, sans-serif" font-size="9" font-weight="bold" fill="#fff" text-anchor="middle">AI协助</text>
  <text x="711" y="154" font-family="PingFang SC, Noto Sans CJK SC, Microsoft YaHei, sans-serif" font-size="10" font-weight="normal" fill="#555" text-anchor="middle">部署脚本</text>
  <text x="711" y="180" font-family="PingFang SC, Noto Sans CJK SC, Microsoft YaHei, sans-serif" font-size="10" font-weight="normal" fill="#555" text-anchor="middle">环境检查</text>
  <text x="711" y="206" font-family="PingFang SC, Noto Sans CJK SC, Microsoft YaHei, sans-serif" font-size="10" font-weight="normal" fill="#555" text-anchor="middle">灰度发布</text>
  <line x1="785" y1="187" x2="795" y2="187" stroke="#CCC" stroke-width="2" />
  <polygon points="797,187 789,183 789,191" fill="#CCC" />
  <rect x="795" y="72" width="143" height="230" fill="#fff" stroke="#52B366" rx="10" stroke-width="2" />
  <rect x="795" y="72" width="143" height="8" fill="#52B366" stroke="none" rx="5" stroke-width="0" />
  <rect x="795" y="76" width="143" height="4" fill="#52B366" stroke="none" rx="0" stroke-width="0" />
  <text x="866" y="100" font-family="PingFang SC, Noto Sans CJK SC, Microsoft YaHei, sans-serif" font-size="13" font-weight="bold" fill="#52B366" text-anchor="middle">运维</text>
  <rect x="805" y="110" width="123" height="20" fill="#52B366" stroke="none" rx="10" stroke-width="0" />
  <text x="866" y="124" font-family="PingFang SC, Noto Sans CJK SC, Microsoft YaHei, sans-serif" font-size="9" font-weight="bold" fill="#fff" text-anchor="middle">AI协助</text>
  <text x="866" y="154" font-family="PingFang SC, Noto Sans CJK SC, Microsoft YaHei, sans-serif" font-size="10" font-weight="normal" fill="#555" text-anchor="middle">看日志</text>
  <text x="866" y="180" font-family="PingFang SC, Noto Sans CJK SC, Microsoft YaHei, sans-serif" font-size="10" font-weight="normal" fill="#555" text-anchor="middle">定位异常</text>
  <text x="866" y="206" font-family="PingFang SC, Noto Sans CJK SC, Microsoft YaHei, sans-serif" font-size="10" font-weight="normal" fill="#555" text-anchor="middle">修复建议</text>
  <rect x="20" y="322" width="920" height="54" fill="#F0F4FF" stroke="#C0CCE0" rx="8" stroke-width="1" />
  <text x="480" y="342" font-family="PingFang SC, Noto Sans CJK SC, Microsoft YaHei, sans-serif" font-size="10" font-weight="normal" fill="#666" text-anchor="middle">旧认知："AI 帮我写代码" = 只改变了开发环节，上限 1.5x 速度</text>
  <text x="480" y="362" font-family="PingFang SC, Noto Sans CJK SC, Microsoft YaHei, sans-serif" font-size="10" font-weight="bold" fill="#1A3A6B" text-anchor="middle">新认知："AI 进入完整工作流" = 每个环节都变，工程能力几倍跃迁</text>
</svg>